<svg xmlns="http://www.w3.org/2000/svg" version="1.1" xmlns:xlink="http://www.w3.org/1999/xlink" xmlns:svgjs="http://svgjs.com/svgjs" width="1440" height="560" preserveAspectRatio="none" viewBox="0 0 1440 560"><g mask="url(&quot;#SvgjsMask1260&quot;)" fill="none"><rect width="1440" height="560" x="0" y="0" fill="rgba(0, 65, 60, 1)"></rect><path d="M0,298.126C66.401,310.628,140.511,343.571,198.321,308.594C256.051,273.666,255.44,190.763,280.797,128.235C304.88,68.847,341.6,14.67,343.492,-49.387C345.602,-120.83,346.83,-207.15,292.06,-253.072C236.451,-299.697,150.083,-253.893,79.495,-270.734C14.364,-286.273,-36.343,-360.656,-101.908,-347.065C-167.126,-333.546,-202.355,-262.189,-236.781,-205.172C-266.916,-155.262,-267.781,-96.392,-286.581,-41.204C-310.801,29.895,-394.72,97.691,-363.17,165.854C-331.562,234.143,-226.213,216.223,-155.508,241.975C-102.653,261.225,-55.28,287.718,0,298.126" fill="#00312d"></path><path d="M1440 1031.306C1540.277 1022.414 1647.203 1068.112 1735.685 1020.095 1825.81 971.187 1869.292 868.777 1911.6100000000001 775.377 1953.821 682.212 1990.063 584.175 1979.2759999999998 482.464 1968.271 378.696 1907.743 291.44 1850.999 203.86700000000002 1785.725 103.13099999999997 1734.0149999999999-18.451000000000022 1623.835-66.08299999999997 1510.267-115.17999999999995 1379.142-86.42399999999998 1260.469-51.426000000000045 1141.899-16.45799999999997 1017.001 31.034999999999968 947.611 133.34199999999998 880.342 232.522 915.436 363.506 898.566 482.154 881.73 600.564 808.645 717.359 848.539 830.111 889.13 944.8340000000001 993.367 1036.516 1108.576 1075.7060000000001 1216.281 1112.344 1326.679 1041.355 1440 1031.306" fill="#00514b"></path></g><defs><mask id="SvgjsMask1260"><rect width="1440" height="560" fill="#ffffff"></rect></mask></defs></svg>